<svg width="113" height="28" viewBox="0 0 113 28" fill="none" xmlns="http://www.w3.org/2000/svg">
<path d="M0 17.4688V10.125C0 9.375 0.239583 8.61458 0.71875 7.84375C1.69792 6.34375 3.14583 5.59375 5.0625 5.59375V7.15625C4.25 7.15625 3.51042 7.42708 2.84375 7.96875C2.03125 8.63542 1.625 9.38542 1.625 10.2188V17.4688C1.625 17.9062 1.79167 18.3646 2.125 18.8438C2.83333 19.8646 3.80208 20.375 5.03125 20.375V21.9375C3.48958 21.9375 2.23958 21.4583 1.28125 20.5C0.427083 19.6042 0 18.5938 0 17.4688ZM6.4375 7.1875V5.59375C7.47917 5.59375 8.42708 5.91667 9.28125 6.5625C10.4896 7.47917 11.0938 8.67708 11.0938 10.1562L9.53125 10.7188V10.1562C9.46875 9.53125 9.27083 8.97917 8.9375 8.5C8.33333 7.625 7.5 7.1875 6.4375 7.1875ZM6.40625 21.9688V20.4062C6.96875 20.4062 7.51042 20.2708 8.03125 20C9.11458 19.3958 9.72917 18.5 9.875 17.3125C9.875 17.2708 9.875 17.1875 9.875 17.0625C9.89583 16.9167 9.90625 16.8229 9.90625 16.7812L11.4375 17.375C11.4583 18.4583 11.0521 19.4375 10.2188 20.3125C9.15625 21.4167 7.88542 21.9688 6.40625 21.9688ZM13.5312 18.125V16.6562C13.5521 15.3438 14.0729 14.3958 15.0938 13.8125C15.4479 13.625 16.8646 13.2292 19.3438 12.625C21.9479 12 23.2396 11.4375 23.2188 10.9375V10.4062C23.2188 9.59375 22.9688 8.875 22.4688 8.25C21.7812 7.41667 20.9271 7 19.9062 7V5.5C21.2604 5.5 22.3958 5.92708 23.3125 6.78125C24.3542 7.76042 24.875 8.97917 24.875 10.4375V19.2812C24.875 19.9688 25.1458 20.3229 25.6875 20.3438V21.9062C24.9167 21.8438 24.1875 21.4583 23.5 20.75C23.4375 20.8125 23.3646 20.875 23.2812 20.9375C22.4271 21.5833 21.3021 21.9062 19.9062 21.9062V20.375C22.1146 20.3542 23.2292 19.3021 23.25 17.2188V13C22.6458 13.3125 21.3438 13.6979 19.3438 14.1562C17.0938 14.6562 15.7917 15.0833 15.4375 15.4375C15.2083 15.6667 15.0938 16.0521 15.0938 16.5938V17.7188C15.0938 18.0938 15.1667 18.4479 15.3125 18.7812C15.7917 19.8438 16.8438 20.375 18.4688 20.375V21.9062C17.1771 21.9062 16.0729 21.5729 15.1562 20.9062C14.0729 20.1562 13.5312 19.2292 13.5312 18.125ZM13.75 9.625C13.75 8.66667 14.125 7.79167 14.875 7C15.875 6 17.0729 5.5 18.4688 5.5V7.03125C17.8854 7.03125 17.3333 7.1875 16.8125 7.5C15.75 8.10417 15.2188 9 15.2188 10.1875L13.75 9.625ZM27.4688 7.5V5.90625H29.4688V0H31.0938V5.90625H33.0938V7.5H31.0938V16.9062C31.0938 18.6354 31.6771 19.7083 32.8438 20.125C33.3229 20.2708 33.875 20.3438 34.5 20.3438H34.625L35 21.9375H34.3438C31.8229 21.9167 30.2917 20.9375 29.75 19C29.5625 18.3333 29.4688 17.5417 29.4688 16.625V7.5H27.4688ZM43.4375 17.4688V10C43.4375 8.8125 43.9896 7.75 45.0938 6.8125C46.0521 6 47.1146 5.59375 48.2812 5.59375H51.6562V7.15625H48.3125C47.3333 7.15625 46.4792 7.58333 45.75 8.4375C45.2917 9 45.0625 9.5625 45.0625 10.125V17.4062C45.0625 18.3229 45.5625 19.1146 46.5625 19.7812C47.1667 20.1771 47.7604 20.375 48.3438 20.375H51.6562V21.9375H48.375C46.5417 21.9375 45.1354 21.1667 44.1562 19.625C43.6771 18.8542 43.4375 18.1354 43.4375 17.4688ZM53.0938 21.9375V0.03125H54.75V21.9375H53.0938ZM57.3125 21.9375V5.59375H58.9375V8.15625C59.3542 7.28125 60.0521 6.59375 61.0312 6.09375C61.6771 5.76042 62.3438 5.59375 63.0312 5.59375H63.2188L62.8125 7.15625C61.7708 7.15625 60.8333 7.78125 60 9.03125C59.3125 10.0729 58.9688 11.1667 58.9688 12.3125V21.9375H57.3125ZM65.1562 3.4375C65.1562 2.97917 65.3854 2.65625 65.8438 2.46875C65.9688 2.42708 66.0938 2.40625 66.2188 2.40625C66.6979 2.40625 67.0208 2.63542 67.1875 3.09375C67.2292 3.21875 67.25 3.33333 67.25 3.4375C67.25 3.91667 67.0208 4.23958 66.5625 4.40625C66.4375 4.44792 66.3229 4.46875 66.2188 4.46875C65.7396 4.46875 65.4062 4.25 65.2188 3.8125C65.1771 3.6875 65.1562 3.5625 65.1562 3.4375ZM65.4062 21.9375V5.71875H67.0312V21.9375H65.4062ZM68.9062 5.625H70.7188L75.8125 20.5312L75.2812 21.9375H74.4375L68.9062 5.625ZM75.4375 16.375L79.25 5.625H81.0625L76.5312 18.5H76.1562L75.4375 16.375ZM82.7188 3.4375C82.7188 2.97917 82.9479 2.65625 83.4062 2.46875C83.5312 2.42708 83.6562 2.40625 83.7812 2.40625C84.2604 2.40625 84.5833 2.63542 84.75 3.09375C84.7917 3.21875 84.8125 3.33333 84.8125 3.4375C84.8125 3.91667 84.5833 4.23958 84.125 4.40625C84 4.44792 83.8854 4.46875 83.7812 4.46875C83.3021 4.46875 82.9688 4.25 82.7812 3.8125C82.7396 3.6875 82.7188 3.5625 82.7188 3.4375ZM82.9688 21.9375V5.71875H84.5938V21.9375H82.9688ZM87.3438 21.9375V10C87.3438 9 87.7917 8.03125 88.6875 7.09375C89.75 6.03125 91.0521 5.5 92.5938 5.5V7.125C91.4479 7.125 90.4792 7.57292 89.6875 8.46875C89.2083 9.03125 88.9688 9.60417 88.9688 10.1875V21.9375H87.3438ZM93.9375 7.125V5.5C95.8125 5.5 97.2917 6.27083 98.375 7.8125C98.9167 8.58333 99.1875 9.3125 99.1875 10V21.9375H97.5312V10.1875C97.5312 9.52083 97.1875 8.85417 96.5 8.1875C95.7708 7.47917 94.9167 7.125 93.9375 7.125ZM101.281 27.625L101.688 26.0938H107.406C108.865 26.0312 109.958 25.4792 110.688 24.4375C111 24 111.156 23.5729 111.156 23.1562V20.4062C110.594 21.1146 109.802 21.5833 108.781 21.8125C108.469 21.8958 108.156 21.9375 107.844 21.9375V20.4688C108.802 20.4688 109.656 20.0417 110.406 19.1875C110.906 18.625 111.156 18.0625 111.156 17.5V10.0625C111.156 8.9375 110.562 8.08333 109.375 7.5C108.833 7.22917 108.323 7.09375 107.844 7.09375V5.5625C108.948 5.5625 109.938 5.91667 110.812 6.625C110.958 6.75 111.073 6.86458 111.156 6.96875V5.5625H112.75V23.1562C112.75 24.0312 112.354 24.9375 111.562 25.875C110.583 27.0208 109.365 27.6042 107.906 27.625H101.281ZM101.562 17.5V9.9375C101.583 8.95833 102.01 8.01042 102.844 7.09375C103.823 6.07292 105.021 5.5625 106.438 5.5625V7.09375C105.333 7.09375 104.417 7.60417 103.688 8.625C103.333 9.125 103.156 9.59375 103.156 10.0312V17.4688C103.156 18.1771 103.521 18.8646 104.25 19.5312C104.917 20.1146 105.646 20.4062 106.438 20.4062V21.9375C104.562 21.9167 103.156 21.1146 102.219 19.5312C101.781 18.8229 101.562 18.1458 101.562 17.5Z" fill="#086DFF"/>
</svg>
